<svg width="64" height="64" viewBox="0 0 64 64" fill="none" xmlns="http://www.w3.org/2000/svg">
<path fill-rule="evenodd" clip-rule="evenodd" d="M63.1907 24.0986C62.7252 22.204 61.9873 20.3427 60.9628 18.5682C55.1281 8.46219 42.2055 4.99961 32.0995 10.8343C31.8039 11.005 31.5139 11.1818 31.2298 11.3643L31.2281 11.3374C31.2281 11.3374 27.307 13.6013 18.4273 23.3752C11.8163 30.6521 7.62018 36.5346 5.90762 39.0655C5.67282 39.4125 6.05605 39.8123 6.4189 39.6028L21.0474 31.1571C21.3034 31.0093 21.6268 31.1787 21.6594 31.4726C21.6952 31.7959 21.7386 32.1189 21.7897 32.4415C21.8104 32.5726 21.7669 32.7058 21.6715 32.798L1.12479 52.6649C0.823589 52.9561 1.11242 53.4564 1.51524 53.3411L28.9938 45.4806C29.1214 45.4441 29.2585 45.473 29.3616 45.5565C29.6154 45.762 29.8735 45.9612 30.1356 46.1538C30.3738 46.329 30.3589 46.6938 30.1028 46.8416L15.4744 55.2873C15.1115 55.4968 15.2662 56.0286 15.6841 55.9988C18.7321 55.7811 25.9246 55.0885 35.5321 53.0015C48.4364 50.1985 52.3575 47.9346 52.3575 47.9346L52.3351 47.9198C52.6353 47.7649 52.9333 47.6022 53.2289 47.4315C60.3135 43.3413 64.1332 35.7678 63.7739 28.1232H52.6774C53.06 31.9392 51.2319 35.8045 47.6949 37.8466C42.8825 40.625 36.7289 38.9761 33.9505 34.1638C31.1721 29.3514 32.8209 23.1978 37.6333 20.4193C42.4445 17.6416 48.5963 19.2889 51.3757 24.0986H63.1907Z" fill="#E71D36"/>
<path d="M43.2547 28.1154L53.3151 28.1232L53.3265 34.176L43.2662 34.1681L43.2547 28.1154Z" fill="#E71D36"/>
</svg>
