<svg width="63" height="48" viewBox="0 0 63 48" fill="none" xmlns="http://www.w3.org/2000/svg">
<path fill-rule="evenodd" clip-rule="evenodd" d="M62.1907 16.0986C61.7252 14.204 60.9873 12.3427 59.9628 10.5682C54.1281 0.462193 41.2055 -3.00039 31.0995 2.83433C30.8039 3.00501 30.5139 3.18175 30.2298 3.36431L30.2281 3.33741C30.2281 3.33741 26.307 5.60128 17.4273 15.3752C10.8163 22.6521 6.62018 28.5346 4.90762 31.0655C4.67282 31.4125 5.05605 31.8123 5.4189 31.6028L20.0474 23.1571C20.3034 23.0093 20.6268 23.1787 20.6594 23.4726C20.6952 23.7959 20.7386 24.1189 20.7897 24.4415C20.8104 24.5726 20.7669 24.7058 20.6715 24.798L0.124794 44.6649C-0.176411 44.9561 0.11242 45.4564 0.515242 45.3411L27.9938 37.4806C28.1214 37.4441 28.2585 37.473 28.3616 37.5565C28.6154 37.762 28.8735 37.9612 29.1356 38.1538C29.3738 38.329 29.3589 38.6938 29.1028 38.8416L14.4744 47.2873C14.1115 47.4968 14.2662 48.0286 14.6841 47.9988C17.7321 47.7811 24.9246 47.0885 34.5321 45.0015C47.4364 42.1985 51.3575 39.9346 51.3575 39.9346L51.3351 39.9198C51.6353 39.7649 51.9333 39.6022 52.2289 39.4315C59.3135 35.3413 63.1332 27.7678 62.7739 20.1232H51.6774C52.06 23.9392 50.2319 27.8045 46.6949 29.8466C41.8825 32.625 35.7289 30.9761 32.9505 26.1638C30.1721 21.3514 31.8209 15.1978 36.6333 12.4193C41.4445 9.64156 47.5963 11.2889 50.3757 16.0986H62.1907Z" fill="#E71D36"/>
<path d="M42.2547 20.1154L52.3151 20.1232L52.3265 26.176L42.2662 26.1681L42.2547 20.1154Z" fill="#E71D36"/>
</svg>
