<svg width="699" height="634" viewBox="0 0 699 634" fill="none" xmlns="http://www.w3.org/2000/svg">
<g clip-path="url(#clip0_149_1725)">
<path d="M0 17.9333C17.575 17.9333 17.575 29.4167 35.15 29.4167C52.725 29.4167 52.725 17.9333 70.3 17.9333C87.875 17.9333 87.875 29.4167 105.45 29.4167C123.025 29.4167 123.025 17.9333 140.6 17.9333C158.175 17.9333 158.175 29.4167 175.75 29.4167C193.325 29.4167 193.325 17.9333 210.9 17.9333C228.475 17.9333 228.475 29.4167 246.05 29.4167C263.625 29.4167 263.625 17.9333 281.2 17.9333C298.775 17.9333 298.775 29.4167 316.35 29.4167C333.925 29.4167 333.925 17.9333 351.5 17.9333C369.075 17.9333 369.075 29.4167 386.65 29.4167C404.225 29.4167 404.225 17.9333 421.8 17.9333C435.714 17.9333 439.375 29.4167 456.95 29.4167C474.525 29.4167 474.525 17.9333 492.1 17.9333C509.675 17.9333 509.675 29.4167 527.25 29.4167C544.825 29.4167 544.825 17.9333 562.4 17.9333C579.975 17.9333 579.975 29.4167 597.55 29.4167C615.125 29.4167 615.125 17.9333 632.7 17.9333C650.275 17.9333 650.275 29.4167 667.85 29.4167C685.425 29.4167 685.425 17.9333 703 17.9333" stroke="#D3182F" stroke-width="3.82778" stroke-linecap="round"/>
<path d="M0 52.3833C17.575 52.3833 17.575 63.8667 35.15 63.8667C52.725 63.8667 52.725 52.3833 70.3 52.3833C87.875 52.3833 87.875 63.8667 105.45 63.8667C123.025 63.8667 123.025 52.3833 140.6 52.3833C158.175 52.3833 158.175 63.8667 175.75 63.8667C193.325 63.8667 193.325 52.3833 210.9 52.3833C228.475 52.3833 228.475 63.8667 246.05 63.8667C263.625 63.8667 263.625 52.3833 281.2 52.3833C298.775 52.3833 298.775 63.8667 316.35 63.8667C333.925 63.8667 333.925 52.3833 351.5 52.3833C369.075 52.3833 369.075 63.8667 386.65 63.8667C404.225 63.8667 404.225 52.3833 421.8 52.3833C435.714 52.3833 439.375 63.8667 456.95 63.8667C474.525 63.8667 474.525 52.3833 492.1 52.3833C509.675 52.3833 509.675 63.8667 527.25 63.8667C544.825 63.8667 544.825 52.3833 562.4 52.3833C579.975 52.3833 579.975 63.8667 597.55 63.8667C615.125 63.8667 615.125 52.3833 632.7 52.3833C650.275 52.3833 650.275 63.8667 667.85 63.8667C685.425 63.8667 685.425 52.3833 703 52.3833" stroke="#D3182F" stroke-width="3.82778" stroke-linecap="round"/>
<path d="M0 86.8333C17.575 86.8333 17.575 98.3167 35.15 98.3167C52.725 98.3167 52.725 86.8333 70.3 86.8333C87.875 86.8333 87.875 98.3167 105.45 98.3167C123.025 98.3167 123.025 86.8333 140.6 86.8333C158.175 86.8333 158.175 98.3167 175.75 98.3167C193.325 98.3167 193.325 86.8333 210.9 86.8333C228.475 86.8333 228.475 98.3167 246.05 98.3167C263.625 98.3167 263.625 86.8333 281.2 86.8333C298.775 86.8333 298.775 98.3167 316.35 98.3167C333.925 98.3167 333.925 86.8333 351.5 86.8333C369.075 86.8333 369.075 98.3167 386.65 98.3167C404.225 98.3167 404.225 86.8333 421.8 86.8333C435.714 86.8333 439.375 98.3167 456.95 98.3167C474.525 98.3167 474.525 86.8333 492.1 86.8333C509.675 86.8333 509.675 98.3167 527.25 98.3167C544.825 98.3167 544.825 86.8333 562.4 86.8333C579.975 86.8333 579.975 98.3167 597.55 98.3167C615.125 98.3167 615.125 86.8333 632.7 86.8333C650.275 86.8333 650.275 98.3167 667.85 98.3167C685.425 98.3167 685.425 86.8333 703 86.8333" stroke="#D3182F" stroke-width="3.82778" stroke-linecap="round"/>
<path d="M0 121.283C17.575 121.283 17.575 132.767 35.15 132.767C52.725 132.767 52.725 121.283 70.3 121.283C87.875 121.283 87.875 132.767 105.45 132.767C123.025 132.767 123.025 121.283 140.6 121.283C158.175 121.283 158.175 132.767 175.75 132.767C193.325 132.767 193.325 121.283 210.9 121.283C228.475 121.283 228.475 132.767 246.05 132.767C263.625 132.767 263.625 121.283 281.2 121.283C298.775 121.283 298.775 132.767 316.35 132.767C333.925 132.767 333.925 121.283 351.5 121.283C369.075 121.283 369.075 132.767 386.65 132.767C404.225 132.767 404.225 121.283 421.8 121.283C435.714 121.283 439.375 132.767 456.95 132.767C474.525 132.767 474.525 121.283 492.1 121.283C509.675 121.283 509.675 132.767 527.25 132.767C544.825 132.767 544.825 121.283 562.4 121.283C579.975 121.283 579.975 132.767 597.55 132.767C615.125 132.767 615.125 121.283 632.7 121.283C650.275 121.283 650.275 132.767 667.85 132.767C685.425 132.767 685.425 121.283 703 121.283" stroke="#D3182F" stroke-width="3.82778" stroke-linecap="round"/>
<path d="M0 155.733C17.575 155.733 17.575 167.217 35.15 167.217C52.725 167.217 52.725 155.733 70.3 155.733C87.875 155.733 87.875 167.217 105.45 167.217C123.025 167.217 123.025 155.733 140.6 155.733C158.175 155.733 158.175 167.217 175.75 167.217C193.325 167.217 193.325 155.733 210.9 155.733C228.475 155.733 228.475 167.217 246.05 167.217C263.625 167.217 263.625 155.733 281.2 155.733C298.775 155.733 298.775 167.217 316.35 167.217C333.925 167.217 333.925 155.733 351.5 155.733C369.075 155.733 369.075 167.217 386.65 167.217C404.225 167.217 404.225 155.733 421.8 155.733C435.714 155.733 439.375 167.217 456.95 167.217C474.525 167.217 474.525 155.733 492.1 155.733C509.675 155.733 509.675 167.217 527.25 167.217C544.825 167.217 544.825 155.733 562.4 155.733C579.975 155.733 579.975 167.217 597.55 167.217C615.125 167.217 615.125 155.733 632.7 155.733C650.275 155.733 650.275 167.217 667.85 167.217C685.425 167.217 685.425 155.733 703 155.733" stroke="#D3182F" stroke-width="3.82778" stroke-linecap="round"/>
<path d="M0 190.183C17.575 190.183 17.575 201.667 35.15 201.667C52.725 201.667 52.725 190.183 70.3 190.183C87.875 190.183 87.875 201.667 105.45 201.667C123.025 201.667 123.025 190.183 140.6 190.183C158.175 190.183 158.175 201.667 175.75 201.667C193.325 201.667 193.325 190.183 210.9 190.183C228.475 190.183 228.475 201.667 246.05 201.667C263.625 201.667 263.625 190.183 281.2 190.183C298.775 190.183 298.775 201.667 316.35 201.667C333.925 201.667 333.925 190.183 351.5 190.183C369.075 190.183 369.075 201.667 386.65 201.667C404.225 201.667 404.225 190.183 421.8 190.183C435.714 190.183 439.375 201.667 456.95 201.667C474.525 201.667 474.525 190.183 492.1 190.183C509.675 190.183 509.675 201.667 527.25 201.667C544.825 201.667 544.825 190.183 562.4 190.183C579.975 190.183 579.975 201.667 597.55 201.667C615.125 201.667 615.125 190.183 632.7 190.183C650.275 190.183 650.275 201.667 667.85 201.667C685.425 201.667 685.425 190.183 703 190.183" stroke="#D3182F" stroke-width="3.82778" stroke-linecap="round"/>
<path d="M0 224.633C17.575 224.633 17.575 236.117 35.15 236.117C52.725 236.117 52.725 224.633 70.3 224.633C87.875 224.633 87.875 236.117 105.45 236.117C123.025 236.117 123.025 224.633 140.6 224.633C158.175 224.633 158.175 236.117 175.75 236.117C193.325 236.117 193.325 224.633 210.9 224.633C228.475 224.633 228.475 236.117 246.05 236.117C263.625 236.117 263.625 224.633 281.2 224.633C298.775 224.633 298.775 236.117 316.35 236.117C333.925 236.117 333.925 224.633 351.5 224.633C369.075 224.633 369.075 236.117 386.65 236.117C404.225 236.117 404.225 224.633 421.8 224.633C435.714 224.633 439.375 236.117 456.95 236.117C474.525 236.117 474.525 224.633 492.1 224.633C509.675 224.633 509.675 236.117 527.25 236.117C544.825 236.117 544.825 224.633 562.4 224.633C579.975 224.633 579.975 236.117 597.55 236.117C615.125 236.117 615.125 224.633 632.7 224.633C650.275 224.633 650.275 236.117 667.85 236.117C685.425 236.117 685.425 224.633 703 224.633" stroke="#D3182F" stroke-width="3.82778" stroke-linecap="round"/>
<path d="M0 259.083C17.575 259.083 17.575 270.567 35.15 270.567C52.725 270.567 52.725 259.083 70.3 259.083C87.875 259.083 87.875 270.567 105.45 270.567C123.025 270.567 123.025 259.083 140.6 259.083C158.175 259.083 158.175 270.567 175.75 270.567C193.325 270.567 193.325 259.083 210.9 259.083C228.475 259.083 228.475 270.567 246.05 270.567C263.625 270.567 263.625 259.083 281.2 259.083C298.775 259.083 298.775 270.567 316.35 270.567C333.925 270.567 333.925 259.083 351.5 259.083C369.075 259.083 369.075 270.567 386.65 270.567C404.225 270.567 404.225 259.083 421.8 259.083C435.714 259.083 439.375 270.567 456.95 270.567C474.525 270.567 474.525 259.083 492.1 259.083C509.675 259.083 509.675 270.567 527.25 270.567C544.825 270.567 544.825 259.083 562.4 259.083C579.975 259.083 579.975 270.567 597.55 270.567C615.125 270.567 615.125 259.083 632.7 259.083C650.275 259.083 650.275 270.567 667.85 270.567C685.425 270.567 685.425 259.083 703 259.083" stroke="#D3182F" stroke-width="3.82778" stroke-linecap="round"/>
<path d="M0 293.533C17.575 293.533 17.575 305.017 35.15 305.017C52.725 305.017 52.725 293.533 70.3 293.533C87.875 293.533 87.875 305.017 105.45 305.017C123.025 305.017 123.025 293.533 140.6 293.533C158.175 293.533 158.175 305.017 175.75 305.017C193.325 305.017 193.325 293.533 210.9 293.533C228.475 293.533 228.475 305.017 246.05 305.017C263.625 305.017 263.625 293.533 281.2 293.533C298.775 293.533 298.775 305.017 316.35 305.017C333.925 305.017 333.925 293.533 351.5 293.533C369.075 293.533 369.075 305.017 386.65 305.017C404.225 305.017 404.225 293.533 421.8 293.533C435.714 293.533 439.375 305.017 456.95 305.017C474.525 305.017 474.525 293.533 492.1 293.533C509.675 293.533 509.675 305.017 527.25 305.017C544.825 305.017 544.825 293.533 562.4 293.533C579.975 293.533 579.975 305.017 597.55 305.017C615.125 305.017 615.125 293.533 632.7 293.533C650.275 293.533 650.275 305.017 667.85 305.017C685.425 305.017 685.425 293.533 703 293.533" stroke="#D3182F" stroke-width="3.82778" stroke-linecap="round"/>
<path d="M0 327.983C17.575 327.983 17.575 339.467 35.15 339.467C52.725 339.467 52.725 327.983 70.3 327.983C87.875 327.983 87.875 339.467 105.45 339.467C123.025 339.467 123.025 327.983 140.6 327.983C158.175 327.983 158.175 339.467 175.75 339.467C193.325 339.467 193.325 327.983 210.9 327.983C228.475 327.983 228.475 339.467 246.05 339.467C263.625 339.467 263.625 327.983 281.2 327.983C298.775 327.983 298.775 339.467 316.35 339.467C333.925 339.467 333.925 327.983 351.5 327.983C369.075 327.983 369.075 339.467 386.65 339.467C404.225 339.467 404.225 327.983 421.8 327.983C435.714 327.983 439.375 339.467 456.95 339.467C474.525 339.467 474.525 327.983 492.1 327.983C509.675 327.983 509.675 339.467 527.25 339.467C544.825 339.467 544.825 327.983 562.4 327.983C579.975 327.983 579.975 339.467 597.55 339.467C615.125 339.467 615.125 327.983 632.7 327.983C650.275 327.983 650.275 339.467 667.85 339.467C685.425 339.467 685.425 327.983 703 327.983" stroke="#D3182F" stroke-width="3.82778" stroke-linecap="round"/>
<path d="M0 362.433C17.575 362.433 17.575 373.917 35.15 373.917C52.725 373.917 52.725 362.433 70.3 362.433C87.875 362.433 87.875 373.917 105.45 373.917C123.025 373.917 123.025 362.433 140.6 362.433C158.175 362.433 158.175 373.917 175.75 373.917C193.325 373.917 193.325 362.433 210.9 362.433C228.475 362.433 228.475 373.917 246.05 373.917C263.625 373.917 263.625 362.433 281.2 362.433C298.775 362.433 298.775 373.917 316.35 373.917C333.925 373.917 333.925 362.433 351.5 362.433C369.075 362.433 369.075 373.917 386.65 373.917C404.225 373.917 404.225 362.433 421.8 362.433C435.714 362.433 439.375 373.917 456.95 373.917C474.525 373.917 474.525 362.433 492.1 362.433C509.675 362.433 509.675 373.917 527.25 373.917C544.825 373.917 544.825 362.433 562.4 362.433C579.975 362.433 579.975 373.917 597.55 373.917C615.125 373.917 615.125 362.433 632.7 362.433C650.275 362.433 650.275 373.917 667.85 373.917C685.425 373.917 685.425 362.433 703 362.433" stroke="#D3182F" stroke-width="3.82778" stroke-linecap="round"/>
<path d="M0 396.883C17.575 396.883 17.575 408.367 35.15 408.367C52.725 408.367 52.725 396.883 70.3 396.883C87.875 396.883 87.875 408.367 105.45 408.367C123.025 408.367 123.025 396.883 140.6 396.883C158.175 396.883 158.175 408.367 175.75 408.367C193.325 408.367 193.325 396.883 210.9 396.883C228.475 396.883 228.475 408.367 246.05 408.367C263.625 408.367 263.625 396.883 281.2 396.883C298.775 396.883 298.775 408.367 316.35 408.367C333.925 408.367 333.925 396.883 351.5 396.883C369.075 396.883 369.075 408.367 386.65 408.367C404.225 408.367 404.225 396.883 421.8 396.883C435.714 396.883 439.375 408.367 456.95 408.367C474.525 408.367 474.525 396.883 492.1 396.883C509.675 396.883 509.675 408.367 527.25 408.367C544.825 408.367 544.825 396.883 562.4 396.883C579.975 396.883 579.975 408.367 597.55 408.367C615.125 408.367 615.125 396.883 632.7 396.883C650.275 396.883 650.275 408.367 667.85 408.367C685.425 408.367 685.425 396.883 703 396.883" stroke="#D3182F" stroke-width="3.82778" stroke-linecap="round"/>
<path d="M0 431.333C17.575 431.333 17.575 442.817 35.15 442.817C52.725 442.817 52.725 431.333 70.3 431.333C87.875 431.333 87.875 442.817 105.45 442.817C123.025 442.817 123.025 431.333 140.6 431.333C158.175 431.333 158.175 442.817 175.75 442.817C193.325 442.817 193.325 431.333 210.9 431.333C228.475 431.333 228.475 442.817 246.05 442.817C263.625 442.817 263.625 431.333 281.2 431.333C298.775 431.333 298.775 442.817 316.35 442.817C333.925 442.817 333.925 431.333 351.5 431.333C369.075 431.333 369.075 442.817 386.65 442.817C404.225 442.817 404.225 431.333 421.8 431.333C435.714 431.333 439.375 442.817 456.95 442.817C474.525 442.817 474.525 431.333 492.1 431.333C509.675 431.333 509.675 442.817 527.25 442.817C544.825 442.817 544.825 431.333 562.4 431.333C579.975 431.333 579.975 442.817 597.55 442.817C615.125 442.817 615.125 431.333 632.7 431.333C650.275 431.333 650.275 442.817 667.85 442.817C685.425 442.817 685.425 431.333 703 431.333" stroke="#D3182F" stroke-width="3.82778" stroke-linecap="round"/>
<path d="M0 465.783C17.575 465.783 17.575 477.267 35.15 477.267C52.725 477.267 52.725 465.783 70.3 465.783C87.875 465.783 87.875 477.267 105.45 477.267C123.025 477.267 123.025 465.783 140.6 465.783C158.175 465.783 158.175 477.267 175.75 477.267C193.325 477.267 193.325 465.783 210.9 465.783C228.475 465.783 228.475 477.267 246.05 477.267C263.625 477.267 263.625 465.783 281.2 465.783C298.775 465.783 298.775 477.267 316.35 477.267C333.925 477.267 333.925 465.783 351.5 465.783C369.075 465.783 369.075 477.267 386.65 477.267C404.225 477.267 404.225 465.783 421.8 465.783C435.714 465.783 439.375 477.267 456.95 477.267C474.525 477.267 474.525 465.783 492.1 465.783C509.675 465.783 509.675 477.267 527.25 477.267C544.825 477.267 544.825 465.783 562.4 465.783C579.975 465.783 579.975 477.267 597.55 477.267C615.125 477.267 615.125 465.783 632.7 465.783C650.275 465.783 650.275 477.267 667.85 477.267C685.425 477.267 685.425 465.783 703 465.783" stroke="#D3182F" stroke-width="3.82778" stroke-linecap="round"/>
<path d="M0 500.233C17.575 500.233 17.575 511.717 35.15 511.717C52.725 511.717 52.725 500.233 70.3 500.233C87.875 500.233 87.875 511.717 105.45 511.717C123.025 511.717 123.025 500.233 140.6 500.233C158.175 500.233 158.175 511.717 175.75 511.717C193.325 511.717 193.325 500.233 210.9 500.233C228.475 500.233 228.475 511.717 246.05 511.717C263.625 511.717 263.625 500.233 281.2 500.233C298.775 500.233 298.775 511.717 316.35 511.717C333.925 511.717 333.925 500.233 351.5 500.233C369.075 500.233 369.075 511.717 386.65 511.717C404.225 511.717 404.225 500.233 421.8 500.233C435.714 500.233 439.375 511.717 456.95 511.717C474.525 511.717 474.525 500.233 492.1 500.233C509.675 500.233 509.675 511.717 527.25 511.717C544.825 511.717 544.825 500.233 562.4 500.233C579.975 500.233 579.975 511.717 597.55 511.717C615.125 511.717 615.125 500.233 632.7 500.233C650.275 500.233 650.275 511.717 667.85 511.717C685.425 511.717 685.425 500.233 703 500.233" stroke="#D3182F" stroke-width="3.82778" stroke-linecap="round"/>
<path d="M0 534.683C17.575 534.683 17.575 546.167 35.15 546.167C52.725 546.167 52.725 534.683 70.3 534.683C87.875 534.683 87.875 546.167 105.45 546.167C123.025 546.167 123.025 534.683 140.6 534.683C158.175 534.683 158.175 546.167 175.75 546.167C193.325 546.167 193.325 534.683 210.9 534.683C228.475 534.683 228.475 546.167 246.05 546.167C263.625 546.167 263.625 534.683 281.2 534.683C298.775 534.683 298.775 546.167 316.35 546.167C333.925 546.167 333.925 534.683 351.5 534.683C369.075 534.683 369.075 546.167 386.65 546.167C404.225 546.167 404.225 534.683 421.8 534.683C435.714 534.683 439.375 546.167 456.95 546.167C474.525 546.167 474.525 534.683 492.1 534.683C509.675 534.683 509.675 546.167 527.25 546.167C544.825 546.167 544.825 534.683 562.4 534.683C579.975 534.683 579.975 546.167 597.55 546.167C615.125 546.167 615.125 534.683 632.7 534.683C650.275 534.683 650.275 546.167 667.85 546.167C685.425 546.167 685.425 534.683 703 534.683" stroke="#D3182F" stroke-width="3.82778" stroke-linecap="round"/>
<path d="M0 569.133C17.575 569.133 17.575 580.617 35.15 580.617C52.725 580.617 52.725 569.133 70.3 569.133C87.875 569.133 87.875 580.617 105.45 580.617C123.025 580.617 123.025 569.133 140.6 569.133C158.175 569.133 158.175 580.617 175.75 580.617C193.325 580.617 193.325 569.133 210.9 569.133C228.475 569.133 228.475 580.617 246.05 580.617C263.625 580.617 263.625 569.133 281.2 569.133C298.775 569.133 298.775 580.617 316.35 580.617C333.925 580.617 333.925 569.133 351.5 569.133C369.075 569.133 369.075 580.617 386.65 580.617C404.225 580.617 404.225 569.133 421.8 569.133C435.714 569.133 439.375 580.617 456.95 580.617C474.525 580.617 474.525 569.133 492.1 569.133C509.675 569.133 509.675 580.617 527.25 580.617C544.825 580.617 544.825 569.133 562.4 569.133C579.975 569.133 579.975 580.617 597.55 580.617C615.125 580.617 615.125 569.133 632.7 569.133C650.275 569.133 650.275 580.617 667.85 580.617C685.425 580.617 685.425 569.133 703 569.133" stroke="#D3182F" stroke-width="3.82778" stroke-linecap="round"/>
<path d="M0 603.583C17.575 603.583 17.575 615.067 35.15 615.067C52.725 615.067 52.725 603.583 70.3 603.583C87.875 603.583 87.875 615.067 105.45 615.067C123.025 615.067 123.025 603.583 140.6 603.583C158.175 603.583 158.175 615.067 175.75 615.067C193.325 615.067 193.325 603.583 210.9 603.583C228.475 603.583 228.475 615.067 246.05 615.067C263.625 615.067 263.625 603.583 281.2 603.583C298.775 603.583 298.775 615.067 316.35 615.067C333.925 615.067 333.925 603.583 351.5 603.583C369.075 603.583 369.075 615.067 386.65 615.067C404.225 615.067 404.225 603.583 421.8 603.583C435.714 603.583 439.375 615.067 456.95 615.067C474.525 615.067 474.525 603.583 492.1 603.583C509.675 603.583 509.675 615.067 527.25 615.067C544.825 615.067 544.825 603.583 562.4 603.583C579.975 603.583 579.975 615.067 597.55 615.067C615.125 615.067 615.125 603.583 632.7 603.583C650.275 603.583 650.275 615.067 667.85 615.067C685.425 615.067 685.425 603.583 703 603.583" stroke="#D3182F" stroke-width="3.82778" stroke-linecap="round"/>
</g>
<defs>
<clipPath id="clip0_149_1725">
<rect width="703" height="689" fill="white" transform="translate(0 -28)"/>
</clipPath>
</defs>
</svg>
