<svg width="52" height="52" viewBox="0 0 52 52" fill="none" xmlns="http://www.w3.org/2000/svg">
<g filter="url(#filter0_dii_186_26070)">
<rect x="2" y="1" width="48" height="48" rx="10" fill="white"/>
<rect x="2.5" y="1.5" width="47" height="47" rx="9.5" stroke="#E9EAEB"/>
<path opacity="0.4" d="M35.255 20.1336L34.7614 19.277C34.3881 18.6291 34.2015 18.3052 33.8839 18.1761C33.5663 18.0469 33.2071 18.1488 32.4888 18.3527L31.2686 18.6964C30.81 18.8021 30.3288 18.7421 29.9101 18.527L29.5732 18.3326C29.2141 18.1026 28.9379 17.7635 28.785 17.3649L28.4511 16.3675C28.2315 15.7075 28.1217 15.3775 27.8603 15.1888C27.599 15 27.2518 15 26.5574 15H25.4426C24.7483 15 24.4011 15 24.1397 15.1888C23.8783 15.3775 23.7686 15.7075 23.549 16.3675L23.215 17.3649C23.0621 17.7635 22.7859 18.1026 22.4269 18.3326L22.09 18.527C21.6712 18.7421 21.1901 18.8021 20.7315 18.6964L19.5112 18.3527C18.7929 18.1488 18.4337 18.0469 18.1162 18.1761C17.7986 18.3052 17.6119 18.6291 17.2386 19.277L16.7451 20.1336C16.3952 20.7408 16.2202 21.0445 16.2542 21.3677C16.2881 21.6909 16.5223 21.9514 16.9908 22.4723L18.0218 23.625C18.2738 23.944 18.4527 24.5 18.4527 24.9998C18.4527 25.5 18.2739 26.0558 18.0218 26.3749L16.9908 27.5276C16.5223 28.0485 16.2881 28.309 16.2542 28.6322C16.2202 28.9555 16.3952 29.2591 16.7451 29.8663L17.2386 30.7229C17.6119 31.3707 17.7986 31.6947 18.1162 31.8238C18.4337 31.953 18.7929 31.8511 19.5113 31.6472L20.7314 31.3035C21.1901 31.1977 21.6714 31.2578 22.0902 31.473L22.427 31.6674C22.786 31.8974 23.0621 32.2364 23.215 32.635L23.549 33.6325C23.7686 34.2925 23.8783 34.6225 24.1397 34.8112C24.4011 35 24.7483 35 25.4426 35H26.5574C27.2518 35 27.599 35 27.8603 34.8112C28.1217 34.6225 28.2315 34.2925 28.4511 33.6325L28.7851 32.635C28.9379 32.2364 29.214 31.8974 29.5731 31.6674L29.9099 31.473C30.3287 31.2578 30.8099 31.1977 31.2686 31.3035L32.4888 31.6472C33.2071 31.8511 33.5663 31.953 33.8839 31.8238C34.2015 31.6947 34.3881 31.3707 34.7614 30.7229L35.255 29.8663C35.6049 29.2591 35.7798 28.9555 35.7459 28.6322C35.7119 28.309 35.4777 28.0485 35.0093 27.5276L33.9782 26.3749C33.7262 26.0558 33.5473 25.5 33.5473 24.9998C33.5473 24.5 33.7263 23.944 33.9782 23.625L35.0093 22.4723C35.4777 21.9514 35.7119 21.6909 35.7459 21.3677C35.7798 21.0445 35.6049 20.7408 35.255 20.1336Z" fill="#E71D36"/>
<path d="M35.255 20.1336L34.7614 19.277C34.3881 18.6291 34.2015 18.3052 33.8839 18.1761C33.5663 18.0469 33.2071 18.1488 32.4888 18.3527L31.2686 18.6964C30.81 18.8021 30.3288 18.7421 29.9101 18.527L29.5732 18.3326C29.2141 18.1026 28.9379 17.7635 28.785 17.3649L28.4511 16.3675C28.2315 15.7075 28.1217 15.3775 27.8603 15.1888C27.599 15 27.2518 15 26.5574 15H25.4426C24.7483 15 24.4011 15 24.1397 15.1888C23.8783 15.3775 23.7686 15.7075 23.549 16.3675L23.215 17.3649C23.0621 17.7635 22.7859 18.1026 22.4269 18.3326L22.09 18.527C21.6712 18.7421 21.1901 18.8021 20.7315 18.6964L19.5112 18.3527C18.7929 18.1488 18.4337 18.0469 18.1162 18.1761C17.7986 18.3052 17.6119 18.6291 17.2386 19.277L16.7451 20.1336C16.3952 20.7408 16.2202 21.0445 16.2542 21.3677C16.2881 21.6909 16.5223 21.9514 16.9908 22.4723L18.0218 23.625C18.2738 23.944 18.4527 24.5 18.4527 24.9998C18.4527 25.5 18.2739 26.0558 18.0218 26.3749L16.9908 27.5276C16.5223 28.0485 16.2881 28.309 16.2542 28.6322C16.2202 28.9555 16.3952 29.2591 16.7451 29.8663L17.2386 30.7229C17.6119 31.3707 17.7986 31.6947 18.1162 31.8238C18.4337 31.953 18.7929 31.8511 19.5113 31.6472L20.7314 31.3035C21.1901 31.1977 21.6714 31.2578 22.0902 31.473L22.427 31.6674C22.786 31.8974 23.0621 32.2364 23.215 32.635L23.549 33.6325C23.7686 34.2925 23.8783 34.6225 24.1397 34.8112C24.4011 35 24.7483 35 25.4426 35H26.5574C27.2518 35 27.599 35 27.8603 34.8112C28.1217 34.6225 28.2315 34.2925 28.4511 33.6325L28.7851 32.635C28.9379 32.2364 29.214 31.8974 29.5731 31.6674L29.9099 31.473C30.3287 31.2578 30.8099 31.1977 31.2686 31.3035L32.4888 31.6472C33.2071 31.8511 33.5663 31.953 33.8839 31.8238C34.2015 31.6947 34.3881 31.3707 34.7614 30.7229L35.255 29.8663C35.6049 29.2591 35.7798 28.9555 35.7459 28.6322C35.7119 28.309 35.4777 28.0485 35.0093 27.5276L33.9782 26.3749C33.7262 26.0558 33.5473 25.5 33.5473 24.9998C33.5473 24.5 33.7263 23.944 33.9782 23.625L35.0093 22.4723C35.4777 21.9514 35.7119 21.6909 35.7459 21.3677C35.7798 21.0445 35.6049 20.7408 35.255 20.1336Z" stroke="#E71D36" stroke-width="1.5" stroke-linecap="round"/>
<path d="M28.062 24.5L28.5621 23.9999C29.0032 23.5588 29.2238 23.3382 29.5133 23.4297C29.8029 23.5213 29.8486 23.7831 29.9401 24.3067C29.9795 24.5319 30 24.7636 30 25C30 27.2091 28.2091 29 26 29C25.4695 29 24.9632 28.8967 24.5 28.7092M24 25.5351L23.4558 26.0793C23.0216 26.5135 22.8045 26.7307 22.5178 26.6438C22.2311 26.5569 22.1799 26.3003 22.0774 25.7872C22.0266 25.5327 22 25.2695 22 25C22 22.7909 23.7909 21 26 21C26.5305 21 27.0368 21.1033 27.5 21.2908" stroke="#E71D36" stroke-width="1.5" stroke-linecap="round" stroke-linejoin="round"/>
</g>
<defs>
<filter id="filter0_dii_186_26070" x="0" y="0" width="52" height="52" filterUnits="userSpaceOnUse" color-interpolation-filters="sRGB">
<feFlood flood-opacity="0" result="BackgroundImageFix"/>
<feColorMatrix in="SourceAlpha" type="matrix" values="0 0 0 0 0 0 0 0 0 0 0 0 0 0 0 0 0 0 127 0" result="hardAlpha"/>
<feOffset dy="1"/>
<feGaussianBlur stdDeviation="1"/>
<feComposite in2="hardAlpha" operator="out"/>
<feColorMatrix type="matrix" values="0 0 0 0 0.0627451 0 0 0 0 0.0941176 0 0 0 0 0.156863 0 0 0 0.05 0"/>
<feBlend mode="normal" in2="BackgroundImageFix" result="effect1_dropShadow_186_26070"/>
<feBlend mode="normal" in="SourceGraphic" in2="effect1_dropShadow_186_26070" result="shape"/>
<feColorMatrix in="SourceAlpha" type="matrix" values="0 0 0 0 0 0 0 0 0 0 0 0 0 0 0 0 0 0 127 0" result="hardAlpha"/>
<feOffset dy="-2"/>
<feComposite in2="hardAlpha" operator="arithmetic" k2="-1" k3="1"/>
<feColorMatrix type="matrix" values="0 0 0 0 0.0392157 0 0 0 0 0.0496732 0 0 0 0 0.0705882 0 0 0 0.05 0"/>
<feBlend mode="normal" in2="shape" result="effect2_innerShadow_186_26070"/>
<feColorMatrix in="SourceAlpha" type="matrix" values="0 0 0 0 0 0 0 0 0 0 0 0 0 0 0 0 0 0 127 0" result="hardAlpha"/>
<feMorphology radius="1" operator="erode" in="SourceAlpha" result="effect3_innerShadow_186_26070"/>
<feOffset/>
<feComposite in2="hardAlpha" operator="arithmetic" k2="-1" k3="1"/>
<feColorMatrix type="matrix" values="0 0 0 0 0.0392157 0 0 0 0 0.0496732 0 0 0 0 0.0705882 0 0 0 0.18 0"/>
<feBlend mode="normal" in2="effect2_innerShadow_186_26070" result="effect3_innerShadow_186_26070"/>
</filter>
</defs>
</svg>
