<svg width="52" height="52" viewBox="0 0 52 52" fill="none" xmlns="http://www.w3.org/2000/svg">
<g filter="url(#filter0_dii_186_26072)">
<rect x="2" y="1" width="48" height="48" rx="10" fill="white"/>
<rect x="2.5" y="1.5" width="47" height="47" rx="9.5" stroke="#E9EAEB"/>
<path opacity="0.4" d="M17.8918 33.1087C19.283 34.5 21.5222 34.5 26.0005 34.5C30.4789 34.5 32.718 34.5 34.1093 33.1087C35.5005 31.7175 35.5005 29.4783 35.5005 25C35.5005 23.1509 35.403 23.1835 35.305 22H16.5009C16.403 23.1835 16.5005 23.1509 16.5005 25C16.5005 29.4783 16.5005 31.7175 17.8918 33.1087Z" fill="#E71D36"/>
<path d="M16.5 25C16.5 20.5217 16.5 18.2825 17.8912 16.8912C19.2825 15.5 21.5217 15.5 26 15.5C30.4783 15.5 32.7175 15.5 34.1088 16.8912C35.5 18.2825 35.5 20.5217 35.5 25C35.5 29.4783 35.5 31.7175 34.1088 33.1088C32.7175 34.5 30.4783 34.5 26 34.5C21.5217 34.5 19.2825 34.5 17.8912 33.1088C16.5 31.7175 16.5 29.4783 16.5 25Z" stroke="#E71D36" stroke-width="1.5"/>
<path d="M16.5 22H35.5" stroke="#E71D36" stroke-width="1.5" stroke-linejoin="round"/>
<path d="M27 26H31" stroke="#E71D36" stroke-width="1.5" stroke-linecap="round" stroke-linejoin="round"/>
<path d="M27 30H29" stroke="#E71D36" stroke-width="1.5" stroke-linecap="round" stroke-linejoin="round"/>
<path d="M20.9998 19H21.0088" stroke="#E71D36" stroke-width="2" stroke-linecap="round" stroke-linejoin="round"/>
<path d="M24.9998 19H25.0088" stroke="#E71D36" stroke-width="2" stroke-linecap="round" stroke-linejoin="round"/>
<path d="M23 22V34.5" stroke="#E71D36" stroke-width="1.5" stroke-linecap="round" stroke-linejoin="round"/>
</g>
<defs>
<filter id="filter0_dii_186_26072" x="0" y="0" width="52" height="52" filterUnits="userSpaceOnUse" color-interpolation-filters="sRGB">
<feFlood flood-opacity="0" result="BackgroundImageFix"/>
<feColorMatrix in="SourceAlpha" type="matrix" values="0 0 0 0 0 0 0 0 0 0 0 0 0 0 0 0 0 0 127 0" result="hardAlpha"/>
<feOffset dy="1"/>
<feGaussianBlur stdDeviation="1"/>
<feComposite in2="hardAlpha" operator="out"/>
<feColorMatrix type="matrix" values="0 0 0 0 0.0627451 0 0 0 0 0.0941176 0 0 0 0 0.156863 0 0 0 0.05 0"/>
<feBlend mode="normal" in2="BackgroundImageFix" result="effect1_dropShadow_186_26072"/>
<feBlend mode="normal" in="SourceGraphic" in2="effect1_dropShadow_186_26072" result="shape"/>
<feColorMatrix in="SourceAlpha" type="matrix" values="0 0 0 0 0 0 0 0 0 0 0 0 0 0 0 0 0 0 127 0" result="hardAlpha"/>
<feOffset dy="-2"/>
<feComposite in2="hardAlpha" operator="arithmetic" k2="-1" k3="1"/>
<feColorMatrix type="matrix" values="0 0 0 0 0.0392157 0 0 0 0 0.0496732 0 0 0 0 0.0705882 0 0 0 0.05 0"/>
<feBlend mode="normal" in2="shape" result="effect2_innerShadow_186_26072"/>
<feColorMatrix in="SourceAlpha" type="matrix" values="0 0 0 0 0 0 0 0 0 0 0 0 0 0 0 0 0 0 127 0" result="hardAlpha"/>
<feMorphology radius="1" operator="erode" in="SourceAlpha" result="effect3_innerShadow_186_26072"/>
<feOffset/>
<feComposite in2="hardAlpha" operator="arithmetic" k2="-1" k3="1"/>
<feColorMatrix type="matrix" values="0 0 0 0 0.0392157 0 0 0 0 0.0496732 0 0 0 0 0.0705882 0 0 0 0.18 0"/>
<feBlend mode="normal" in2="effect2_innerShadow_186_26072" result="effect3_innerShadow_186_26072"/>
</filter>
</defs>
</svg>
