<svg width="52" height="52" viewBox="0 0 52 52" fill="none" xmlns="http://www.w3.org/2000/svg">
<g filter="url(#filter0_dii_186_26074)">
<rect x="2" y="1" width="48" height="48" rx="10" fill="white"/>
<rect x="2.5" y="1.5" width="47" height="47" rx="9.5" stroke="#E9EAEB"/>
<path opacity="0.4" d="M22.6281 25.6736H22.1692C20.6854 25.6736 19.9436 25.6736 19.6274 25.1844C19.3111 24.6953 19.6124 24.0138 20.215 22.6508L22.0267 18.5532C22.5746 17.314 22.8485 16.6944 23.38 16.3472C23.9114 16 24.5859 16 25.935 16H28.0244C29.6632 16 30.4826 16 30.7916 16.5354C31.1007 17.0707 30.6942 17.7859 29.8811 19.2162L28.8092 21.1019C28.405 21.813 28.2029 22.1685 28.2057 22.4595C28.2094 22.8378 28.4105 23.1862 28.7354 23.377C28.9854 23.5239 29.3927 23.5239 30.2074 23.5239C31.2373 23.5239 31.7523 23.5239 32.0205 23.7022C32.3689 23.9338 32.5513 24.3482 32.4874 24.7632C32.4382 25.0826 32.0918 25.4656 31.399 26.2317L25.8639 32.3523C24.7767 33.5545 24.2331 34.1556 23.8681 33.9654C23.503 33.7751 23.6783 32.9822 24.0289 31.3962L24.7157 28.2896C24.9826 27.082 25.1161 26.4782 24.7951 26.0759C24.4741 25.6736 23.8588 25.6736 22.6281 25.6736Z" fill="#E71D36"/>
<path d="M22.6281 25.6736H22.1692C20.6854 25.6736 19.9436 25.6736 19.6274 25.1844C19.3111 24.6953 19.6124 24.0138 20.215 22.6508L22.0267 18.5532C22.5746 17.314 22.8485 16.6944 23.38 16.3472C23.9114 16 24.5859 16 25.935 16H28.0244C29.6632 16 30.4826 16 30.7916 16.5354C31.1007 17.0707 30.6942 17.7859 29.8811 19.2162L28.8092 21.1019C28.405 21.813 28.2029 22.1685 28.2057 22.4595C28.2094 22.8378 28.4105 23.1862 28.7354 23.377C28.9854 23.5239 29.3927 23.5239 30.2074 23.5239C31.2373 23.5239 31.7523 23.5239 32.0205 23.7022C32.3689 23.9338 32.5513 24.3482 32.4874 24.7632C32.4382 25.0826 32.0918 25.4656 31.399 26.2317L25.8639 32.3523C24.7767 33.5545 24.2331 34.1556 23.8681 33.9654C23.503 33.7751 23.6783 32.9822 24.0289 31.3962L24.7157 28.2896C24.9826 27.082 25.1161 26.4782 24.7951 26.0759C24.4741 25.6736 23.8588 25.6736 22.6281 25.6736Z" stroke="#E71D36" stroke-width="1.5" stroke-linejoin="round"/>
</g>
<defs>
<filter id="filter0_dii_186_26074" x="0" y="0" width="52" height="52" filterUnits="userSpaceOnUse" color-interpolation-filters="sRGB">
<feFlood flood-opacity="0" result="BackgroundImageFix"/>
<feColorMatrix in="SourceAlpha" type="matrix" values="0 0 0 0 0 0 0 0 0 0 0 0 0 0 0 0 0 0 127 0" result="hardAlpha"/>
<feOffset dy="1"/>
<feGaussianBlur stdDeviation="1"/>
<feComposite in2="hardAlpha" operator="out"/>
<feColorMatrix type="matrix" values="0 0 0 0 0.0627451 0 0 0 0 0.0941176 0 0 0 0 0.156863 0 0 0 0.05 0"/>
<feBlend mode="normal" in2="BackgroundImageFix" result="effect1_dropShadow_186_26074"/>
<feBlend mode="normal" in="SourceGraphic" in2="effect1_dropShadow_186_26074" result="shape"/>
<feColorMatrix in="SourceAlpha" type="matrix" values="0 0 0 0 0 0 0 0 0 0 0 0 0 0 0 0 0 0 127 0" result="hardAlpha"/>
<feOffset dy="-2"/>
<feComposite in2="hardAlpha" operator="arithmetic" k2="-1" k3="1"/>
<feColorMatrix type="matrix" values="0 0 0 0 0.0392157 0 0 0 0 0.0496732 0 0 0 0 0.0705882 0 0 0 0.05 0"/>
<feBlend mode="normal" in2="shape" result="effect2_innerShadow_186_26074"/>
<feColorMatrix in="SourceAlpha" type="matrix" values="0 0 0 0 0 0 0 0 0 0 0 0 0 0 0 0 0 0 127 0" result="hardAlpha"/>
<feMorphology radius="1" operator="erode" in="SourceAlpha" result="effect3_innerShadow_186_26074"/>
<feOffset/>
<feComposite in2="hardAlpha" operator="arithmetic" k2="-1" k3="1"/>
<feColorMatrix type="matrix" values="0 0 0 0 0.0392157 0 0 0 0 0.0496732 0 0 0 0 0.0705882 0 0 0 0.18 0"/>
<feBlend mode="normal" in2="effect2_innerShadow_186_26074" result="effect3_innerShadow_186_26074"/>
</filter>
</defs>
</svg>
