<svg width="54" height="54" viewBox="0 0 54 54" fill="none" xmlns="http://www.w3.org/2000/svg">
<g filter="url(#filter0_dd_175_1929)">
<path d="M3 19.3404C3 10.3159 10.3159 3 19.3404 3H34.6596C43.6841 3 51 10.3159 51 19.3404V34.6596C51 43.6841 43.6841 51 34.6596 51H19.3404C10.3159 51 3 43.6841 3 34.6596V19.3404Z" fill="url(#paint0_linear_175_1929)" shape-rendering="crispEdges"/>
<path opacity="0.4" d="M19 25H35V19H19V25Z" fill="#E71D36"/>
<path d="M35 25C35 25 37.375 26.8222 36.375 29.6667C35.375 32.5111 36.375 34.4074 37 35M35 25H19M35 25V19M19 25C19 25 16.625 26.8222 17.625 29.6667C18.625 32.5111 17.625 34.4074 17 35M19 25V19M35 19H35.75H37M35 19H19M19 19H18.25H17" stroke="#E71D36" stroke-width="1.5" stroke-linecap="round" stroke-linejoin="round"/>
<path d="M26 22H28" stroke="#E71D36" stroke-width="1.5" stroke-linecap="round" stroke-linejoin="round"/>
</g>
<defs>
<filter id="filter0_dd_175_1929" x="0" y="0" width="54" height="54" filterUnits="userSpaceOnUse" color-interpolation-filters="sRGB">
<feFlood flood-opacity="0" result="BackgroundImageFix"/>
<feColorMatrix in="SourceAlpha" type="matrix" values="0 0 0 0 0 0 0 0 0 0 0 0 0 0 0 0 0 0 127 0" result="hardAlpha"/>
<feMorphology radius="3" operator="dilate" in="SourceAlpha" result="effect1_dropShadow_175_1929"/>
<feOffset/>
<feComposite in2="hardAlpha" operator="out"/>
<feColorMatrix type="matrix" values="0 0 0 0 0.94902 0 0 0 0 0.956863 0 0 0 0 0.968627 0 0 0 1 0"/>
<feBlend mode="normal" in2="BackgroundImageFix" result="effect1_dropShadow_175_1929"/>
<feColorMatrix in="SourceAlpha" type="matrix" values="0 0 0 0 0 0 0 0 0 0 0 0 0 0 0 0 0 0 127 0" result="hardAlpha"/>
<feMorphology radius="2" operator="dilate" in="SourceAlpha" result="effect2_dropShadow_175_1929"/>
<feOffset/>
<feComposite in2="hardAlpha" operator="out"/>
<feColorMatrix type="matrix" values="0 0 0 0 1 0 0 0 0 1 0 0 0 0 1 0 0 0 1 0"/>
<feBlend mode="normal" in2="effect1_dropShadow_175_1929" result="effect2_dropShadow_175_1929"/>
<feBlend mode="normal" in="SourceGraphic" in2="effect2_dropShadow_175_1929" result="shape"/>
</filter>
<linearGradient id="paint0_linear_175_1929" x1="27" y1="3" x2="27" y2="51" gradientUnits="userSpaceOnUse">
<stop stop-color="#E71D36" stop-opacity="0.1"/>
<stop offset="1" stop-color="#E71D36" stop-opacity="0.3"/>
</linearGradient>
</defs>
</svg>
