<svg width="54" height="54" viewBox="0 0 54 54" fill="none" xmlns="http://www.w3.org/2000/svg">
<path d="M17.5 27C17.5 22.5217 17.5 20.2825 18.8912 18.8912C20.2825 17.5 22.5217 17.5 27 17.5C31.4783 17.5 33.7175 17.5 35.1088 18.8912C36.5 20.2825 36.5 22.5217 36.5 27C36.5 31.4783 36.5 33.7175 35.1088 35.1088C33.7175 36.5 31.4783 36.5 27 36.5C22.5217 36.5 20.2825 36.5 18.8912 35.1088C17.5 33.7175 17.5 31.4783 17.5 27Z" stroke="white" stroke-width="1.5" stroke-linejoin="round"/>
<path d="M31.5 27C31.5 29.4853 29.4853 31.5 27 31.5C24.5147 31.5 22.5 29.4853 22.5 27C22.5 24.5147 24.5147 22.5 27 22.5C29.4853 22.5 31.5 24.5147 31.5 27Z" stroke="white" stroke-width="1.5"/>
<path d="M32.5078 21.5H32.4988" stroke="white" stroke-width="2" stroke-linecap="round" stroke-linejoin="round"/>
<rect x="1.5" y="1.5" width="51" height="51" rx="17.5" stroke="white" stroke-width="3"/>
</svg>
