<svg width="142" height="30" viewBox="0 0 142 30" fill="none" xmlns="http://www.w3.org/2000/svg">
<path d="M133.641 23.1165C132.434 23.1165 131.361 22.9321 130.422 22.5632C129.482 22.1775 128.686 21.6576 128.032 21.0036C127.395 20.3496 126.908 19.6034 126.573 18.7649C126.238 17.9097 126.07 17.0125 126.07 16.0734V15.4949C126.07 14.539 126.238 13.6335 126.573 12.7782C126.925 11.9062 127.428 11.1432 128.082 10.4892C128.753 9.8352 129.558 9.32374 130.497 8.95481C131.436 8.56911 132.484 8.37627 133.641 8.37627C134.832 8.37627 135.888 8.56911 136.811 8.95481C137.75 9.32374 138.546 9.8352 139.2 10.4892C139.854 11.1432 140.357 11.9062 140.71 12.7782C141.062 13.6335 141.238 14.539 141.238 15.4949V16.0734C141.238 17.0125 141.07 17.9097 140.735 18.7649C140.399 19.6034 139.905 20.3496 139.251 21.0036C138.613 21.6576 137.825 22.1775 136.886 22.5632C135.947 22.9321 134.865 23.1165 133.641 23.1165ZM133.641 19.7207C134.429 19.7207 135.083 19.5531 135.603 19.2177C136.123 18.8823 136.517 18.4127 136.786 17.809C137.071 17.2053 137.213 16.5346 137.213 15.7967C137.213 15.0086 137.071 14.321 136.786 13.7341C136.5 13.1304 136.09 12.6525 135.553 12.3003C135.033 11.9481 134.396 11.7721 133.641 11.7721C132.903 11.7721 132.266 11.9481 131.73 12.3003C131.193 12.6525 130.782 13.1304 130.497 13.7341C130.229 14.321 130.095 15.0086 130.095 15.7967C130.095 16.5346 130.229 17.2053 130.497 17.809C130.765 18.4127 131.168 18.8823 131.704 19.2177C132.241 19.5531 132.887 19.7207 133.641 19.7207Z" fill="#011627"/>
<path d="M0.762207 22.6386V4.27618H6.44702L10.6477 14.5893H11.1257L15.2761 4.27618H21.0615V22.6386H16.9866V6.96767L17.5651 7.01798L12.7104 18.9158H8.78635L3.90646 7.01798L4.53532 6.96767V22.6386H0.762207Z" fill="#011627"/>
<path d="M30.7458 22.6387C29.572 22.6387 28.5323 22.4374 27.6267 22.035C26.7379 21.6325 25.9917 21.0959 25.388 20.4251C24.8011 19.7375 24.3483 18.9745 24.0297 18.1361C23.7278 17.2808 23.5769 16.4088 23.5769 15.5201V15.017C23.5769 14.0947 23.7278 13.2143 24.0297 12.3758C24.3483 11.5206 24.8011 10.7576 25.388 10.0868C25.9749 9.416 26.7044 8.88777 27.5764 8.50207C28.4652 8.09961 29.4713 7.89838 30.5949 7.89838C32.0706 7.89838 33.3115 8.23376 34.3177 8.90454C35.3406 9.55854 36.1204 10.4222 36.657 11.4954C37.1936 12.5519 37.4619 13.709 37.4619 14.9667V16.325H25.2622V14.036H35.022L33.714 15.0924C33.714 14.2707 33.5966 13.5664 33.3618 12.9795C33.1271 12.3926 32.7749 11.9482 32.3054 11.6463C31.8526 11.3277 31.2824 11.1684 30.5949 11.1684C29.8906 11.1684 29.2953 11.3277 28.8089 11.6463C28.3226 11.9649 27.9537 12.4345 27.7022 13.055C27.4506 13.6587 27.3249 14.4049 27.3249 15.2937C27.3249 16.1154 27.4422 16.8365 27.677 17.4569C27.9118 18.0606 28.2807 18.5302 28.7838 18.8655C29.2869 19.2009 29.9409 19.3686 30.7458 19.3686C31.4837 19.3686 32.0874 19.2261 32.5569 18.941C33.0264 18.6559 33.3451 18.3038 33.5128 17.8845H37.2104C37.0092 18.8069 36.6151 19.6285 36.0282 20.3496C35.4412 21.0707 34.7034 21.6325 33.8146 22.035C32.9258 22.4374 31.9029 22.6387 30.7458 22.6387Z" fill="#011627"/>
<path d="M39.9775 22.6386V8.85421H43.1721V14.7654H42.9457C42.9457 13.3568 43.1218 12.1829 43.474 11.2438C43.8429 10.3048 44.3963 9.60045 45.1341 9.1309C45.872 8.66136 46.7691 8.42659 47.8256 8.42659H48.0017C49.6115 8.42659 50.8357 8.95482 51.6742 10.0113C52.5294 11.051 52.957 12.6357 52.957 14.7654V22.6386H48.9324V14.539C48.9324 13.8012 48.7144 13.1975 48.2784 12.7279C47.8424 12.2584 47.2554 12.0236 46.5176 12.0236C45.763 12.0236 45.1509 12.2668 44.6813 12.7531C44.2286 13.2226 44.0022 13.8431 44.0022 14.6145V22.6386H39.9775Z" fill="#011627"/>
<path d="M60.4277 22.6386C58.8346 22.6386 57.6105 22.1272 56.7552 21.1042C55.9 20.0645 55.4724 18.505 55.4724 16.4256V8.42659H59.497V16.6268C59.497 17.3647 59.7066 17.9516 60.1259 18.3876C60.5451 18.8236 61.1069 19.0416 61.8112 19.0416C62.5323 19.0416 63.1192 18.8152 63.572 18.3624C64.0248 17.9097 64.2511 17.2976 64.2511 16.5262V8.42659H68.2758V22.211H65.0812V16.4004H65.3579C65.3579 17.7923 65.1735 18.9578 64.8045 19.8968C64.4524 20.8192 63.9241 21.5067 63.2198 21.9595C62.5155 22.4122 61.6435 22.6386 60.6038 22.6386H60.4277Z" fill="#011627"/>
<path d="M75.7465 22.6386C74.1534 22.6386 72.9293 22.1272 72.074 21.1042C71.2188 20.0645 70.7912 18.505 70.7912 16.4256V8.42659H74.8158V16.6268C74.8158 17.3647 75.0254 17.9516 75.4447 18.3876C75.8639 18.8236 76.4257 19.0416 77.13 19.0416C77.8511 19.0416 78.438 18.8152 78.8908 18.3624C79.3435 17.9097 79.5699 17.2976 79.5699 16.5262V8.42659H83.5946V22.211H80.4V16.4004H80.6767C80.6767 17.7923 80.4922 18.9578 80.1233 19.8968C79.7712 20.8192 79.2429 21.5067 78.5386 21.9595C77.8343 22.4122 76.9623 22.6386 75.9226 22.6386H75.7465Z" fill="#011627"/>
<path d="M75.7465 22.6386C74.1534 22.6386 72.9293 22.1272 72.074 21.1042C71.2188 20.0645 70.7912 18.505 70.7912 16.4256V8.42659H74.8158V16.6268C74.8158 17.3647 75.0254 17.9516 75.4447 18.3876C75.8639 18.8236 76.4257 19.0416 77.13 19.0416C77.8511 19.0416 78.438 18.8152 78.8908 18.3624C79.3435 17.9097 79.5699 17.2976 79.5699 16.5262V8.42659H83.5946V22.211H80.4V16.4004H80.6767C80.6767 17.7923 80.4922 18.9578 80.1233 19.8968C79.7712 20.8192 79.2429 21.5067 78.5386 21.9595C77.8343 22.4122 76.9623 22.6386 75.9226 22.6386H75.7465Z" fill="#011627"/>
<path fill-rule="evenodd" clip-rule="evenodd" d="M123.093 10.0616C122.802 8.87753 122.34 7.7142 121.7 6.60514C118.053 0.28887 109.977 -1.87525 103.66 1.77146C103.476 1.87813 103.295 1.98859 103.117 2.10269L103.116 2.08588C103.116 2.08588 100.665 3.5008 95.1154 9.60952C90.9835 14.1576 88.3609 17.8341 87.2906 19.4159C87.1438 19.6328 87.3833 19.8827 87.6101 19.7518L96.7529 14.4732C96.9129 14.3808 97.1151 14.4867 97.1354 14.6703C97.1578 14.8724 97.1849 15.0743 97.2169 15.276C97.2298 15.3579 97.2026 15.4411 97.143 15.4987L84.3013 27.9155C84.1131 28.0976 84.2936 28.4102 84.5453 28.3382L101.719 23.4254C101.799 23.4026 101.885 23.4206 101.949 23.4728C102.108 23.6013 102.269 23.7257 102.433 23.8462C102.582 23.9556 102.573 24.1836 102.413 24.276L93.2698 29.5546C93.043 29.6855 93.1397 30.0179 93.4009 29.9992C95.3059 29.8632 99.8012 29.4303 105.806 28.126C113.871 26.374 116.322 24.9591 116.322 24.9591L116.308 24.9499C116.495 24.8531 116.682 24.7514 116.866 24.6447C121.294 22.0883 123.682 17.3549 123.457 12.577H116.522C116.761 14.962 115.618 17.3778 113.408 18.6541C110.4 20.3906 106.554 19.3601 104.817 16.3523C103.081 13.3446 104.111 9.4986 107.119 7.76208C110.126 6.02598 113.971 7.05558 115.708 10.0616H123.093Z" fill="#E71D36"/>
<path d="M110.633 12.5721L116.92 12.577L116.927 16.36L110.64 16.3551L110.633 12.5721Z" fill="#E71D36"/>
</svg>
