<svg width="140" height="36" viewBox="0 0 140 36" fill="none" xmlns="http://www.w3.org/2000/svg">
<g clip-path="url(#clip0_204_582)">
<path fill-rule="evenodd" clip-rule="evenodd" d="M33.8391 9.105C37.0548 14.7548 35.1464 21.9792 29.5767 25.2412C29.4138 25.3366 29.2495 25.4276 29.0841 25.5141L29.0965 25.5224C29.0965 25.5224 26.9354 26.788 19.8234 28.3551C14.5285 29.5218 10.5645 29.909 8.88462 30.0307C8.65429 30.0474 8.56906 29.7501 8.76904 29.633L16.8312 24.9114C16.9723 24.8287 16.9806 24.6248 16.8493 24.5269C16.7049 24.4192 16.5626 24.3078 16.4227 24.1929C16.3659 24.1463 16.2903 24.1301 16.22 24.1505L1.07576 28.545C0.853752 28.6094 0.694569 28.3297 0.860572 28.1669L12.1845 17.0602C12.237 17.0087 12.261 16.9342 12.2496 16.861C12.2215 16.6806 12.1975 16.5 12.1778 16.3192C12.1598 16.1549 11.9816 16.0602 11.8405 16.1429L3.77831 20.8645C3.57833 20.9816 3.36712 20.7581 3.49653 20.5641C4.44037 19.1492 6.75295 15.8605 10.3965 11.7924C15.2904 6.3282 17.4514 5.06257 17.4514 5.06257L17.4523 5.07761C17.6089 4.97555 17.7687 4.87674 17.9316 4.78132C23.5014 1.51939 30.6234 3.45517 33.8391 9.105ZM26.5267 19.8826C29.179 18.3293 30.0877 14.8892 28.5564 12.1988C27.0252 9.50836 23.6337 8.58656 20.9815 10.1399C18.3292 11.6932 17.4205 15.1334 18.9518 17.8238C20.4831 20.5142 23.8745 21.436 26.5267 19.8826Z" fill="white"/>
</g>
<path d="M132.801 26.3027C131.737 26.3027 130.79 26.1377 129.962 25.8077C129.134 25.4627 128.432 24.9977 127.855 24.4127C127.293 23.8277 126.864 23.1602 126.568 22.4102C126.273 21.6452 126.125 20.8427 126.125 20.0027V19.4852C126.125 18.6302 126.273 17.8202 126.568 17.0552C126.879 16.2752 127.323 15.5927 127.899 15.0077C128.491 14.4227 129.201 13.9652 130.029 13.6352C130.857 13.2902 131.781 13.1177 132.801 13.1177C133.851 13.1177 134.783 13.2902 135.596 13.6352C136.424 13.9652 137.127 14.4227 137.703 15.0077C138.28 15.5927 138.724 16.2752 139.034 17.0552C139.345 17.8202 139.5 18.6302 139.5 19.4852V20.0027C139.5 20.8427 139.352 21.6452 139.056 22.4102C138.761 23.1602 138.324 23.8277 137.748 24.4127C137.186 24.9977 136.491 25.4627 135.663 25.8077C134.835 26.1377 133.881 26.3027 132.801 26.3027ZM132.801 23.2652C133.496 23.2652 134.073 23.1152 134.531 22.8152C134.99 22.5152 135.337 22.0952 135.574 21.5552C135.825 21.0152 135.951 20.4152 135.951 19.7552C135.951 19.0502 135.825 18.4352 135.574 17.9102C135.323 17.3702 134.96 16.9427 134.487 16.6277C134.029 16.3127 133.467 16.1552 132.801 16.1552C132.151 16.1552 131.589 16.3127 131.116 16.6277C130.642 16.9427 130.28 17.3702 130.029 17.9102C129.792 18.4352 129.674 19.0502 129.674 19.7552C129.674 20.4152 129.792 21.0152 130.029 21.5552C130.265 22.0952 130.62 22.5152 131.093 22.8152C131.567 23.1152 132.136 23.2652 132.801 23.2652Z" fill="white"/>
<path d="M116.276 26.3021C114.827 26.3021 113.563 26.0621 112.483 25.5821C111.404 25.0871 110.509 24.4271 109.799 23.6021C109.104 22.7771 108.587 21.8621 108.247 20.8571C107.907 19.8521 107.737 18.8471 107.737 17.8421V17.3471C107.737 16.3121 107.907 15.2996 108.247 14.3096C108.587 13.3196 109.097 12.4196 109.777 11.6096C110.472 10.7996 111.33 10.1546 112.35 9.67459C113.385 9.19459 114.576 8.95459 115.921 8.95459C117.385 8.95459 118.679 9.23209 119.803 9.78709C120.927 10.3271 121.829 11.0846 122.509 12.0596C123.189 13.0196 123.581 14.1371 123.685 15.4121H120.047C119.958 14.8121 119.722 14.2871 119.337 13.8371C118.968 13.3871 118.487 13.0346 117.895 12.7796C117.319 12.5246 116.661 12.3971 115.921 12.3971C115.212 12.3971 114.576 12.5246 114.014 12.7796C113.467 13.0346 112.993 13.3946 112.594 13.8596C112.21 14.3246 111.914 14.8796 111.707 15.5246C111.515 16.1546 111.419 16.8521 111.419 17.6171C111.419 18.4121 111.522 19.1396 111.729 19.7996C111.951 20.4446 112.269 21.0071 112.683 21.4871C113.097 21.9521 113.607 22.3121 114.213 22.5671C114.834 22.8221 115.522 22.9496 116.276 22.9496C117.282 22.9496 118.154 22.7396 118.894 22.3196C119.633 21.8996 120.165 21.3446 120.491 20.6546L120.047 23.1746V19.2596H123.396V22.7696C122.701 23.9096 121.74 24.7871 120.513 25.4021C119.3 26.0021 117.888 26.3021 116.276 26.3021ZM115.81 19.9796V17.3246H124.727V19.9796H115.81Z" fill="white"/>
<path d="M98.2092 26.2579C96.8044 26.2579 95.7249 25.8004 94.9708 24.8854C94.2166 23.9554 93.8395 22.5604 93.8395 20.7004V13.5454H97.3885V20.8804C97.3885 21.5404 97.5733 22.0654 97.943 22.4554C98.3127 22.8454 98.8081 23.0404 99.4292 23.0404C100.065 23.0404 100.583 22.8379 100.982 22.4329C101.381 22.0279 101.581 21.4804 101.581 20.7904V13.5454H105.13V25.8754H102.313V20.6779H102.557C102.557 21.9229 102.394 22.9654 102.069 23.8054C101.758 24.6304 101.292 25.2454 100.671 25.6504C100.05 26.0554 99.2813 26.2579 98.3645 26.2579H98.2092Z" fill="white"/>
<path d="M79.6359 25.8751V13.5451H82.4529V18.8326H82.2533C82.2533 17.5726 82.4086 16.5226 82.7191 15.6826C83.0444 14.8426 83.5324 14.2126 84.183 13.7926C84.8337 13.3726 85.6248 13.1626 86.5564 13.1626H86.7117C88.1313 13.1626 89.2107 13.6351 89.9501 14.5801C90.7043 15.5101 91.0813 16.9276 91.0813 18.8326V25.8751H87.5324V18.6301C87.5324 17.9701 87.3401 17.4301 86.9557 17.0101C86.5712 16.5901 86.0536 16.3801 85.403 16.3801C84.7376 16.3801 84.1978 16.5976 83.7838 17.0326C83.3845 17.4526 83.1849 18.0076 83.1849 18.6976V25.8751H79.6359Z" fill="white"/>
<path d="M71.362 26.3027C70.3269 26.3027 69.41 26.1227 68.6115 25.7627C67.8278 25.4027 67.1698 24.9227 66.6374 24.3227C66.1198 23.7077 65.7206 23.0252 65.4396 22.2752C65.1735 21.5102 65.0404 20.7302 65.0404 19.9352V19.4852C65.0404 18.6602 65.1735 17.8727 65.4396 17.1227C65.7206 16.3577 66.1198 15.6752 66.6374 15.0752C67.155 14.4752 67.7982 14.0027 68.5672 13.6577C69.3509 13.2977 70.2381 13.1177 71.2289 13.1177C72.5302 13.1177 73.6244 13.4177 74.5117 14.0177C75.4137 14.6027 76.1013 15.3752 76.5745 16.3352C77.0477 17.2802 77.2843 18.3152 77.2843 19.4402V20.6552H66.5265V18.6077H75.1327L73.9793 19.5527C73.9793 18.8177 73.8758 18.1877 73.6688 17.6627C73.4618 17.1377 73.1512 16.7402 72.7372 16.4702C72.3379 16.1852 71.8352 16.0427 71.2289 16.0427C70.6078 16.0427 70.0829 16.1852 69.654 16.4702C69.2252 16.7552 68.8999 17.1752 68.6781 17.7302C68.4563 18.2702 68.3453 18.9377 68.3453 19.7327C68.3453 20.4677 68.4489 21.1127 68.6559 21.6677C68.8629 22.2077 69.1882 22.6277 69.6318 22.9277C70.0755 23.2277 70.6522 23.3777 71.362 23.3777C72.0126 23.3777 72.545 23.2502 72.959 22.9952C73.373 22.7402 73.654 22.4252 73.8019 22.0502H77.0625C76.885 22.8752 76.5375 23.6102 76.02 24.2552C75.5024 24.9002 74.8518 25.4027 74.0681 25.7627C73.2843 26.1227 72.3823 26.3027 71.362 26.3027Z" fill="white"/>
<path d="M44.463 25.8752V9.4502H49.4759L53.1801 18.6752H53.6015L57.2614 9.4502H62.363V25.8752H58.7697V11.8577L59.2799 11.9027L54.9989 22.5452H51.5387L47.2356 11.9027L47.7901 11.8577V25.8752H44.463Z" fill="white"/>
<defs>
<clipPath id="clip0_204_582">
<rect width="35.4896" height="36" fill="white" transform="translate(0.5)"/>
</clipPath>
</defs>
</svg>
