<svg width="46" height="46" viewBox="0 0 46 46" fill="none" xmlns="http://www.w3.org/2000/svg">
<g filter="url(#filter0_dd_149_1785)">
<path d="M3 16.617C3 9.09655 9.09655 3 16.617 3H29.383C36.9035 3 43 9.09655 43 16.617V29.383C43 36.9035 36.9035 43 29.383 43H16.617C9.09655 43 3 36.9035 3 29.383V16.617Z" fill="url(#paint0_linear_149_1785)" shape-rendering="crispEdges"/>
<path opacity="0.4" d="M26 17C26 15.5858 26 14.8787 26.4393 14.4393C26.8787 14 27.5858 14 29 14C30.4142 14 31.1213 14 31.5607 14.4393C32 14.8787 32 15.5858 32 17C32 18.4142 32 19.1213 31.5607 19.5607C31.1213 20 30.4142 20 29 20C27.5858 20 26.8787 20 26.4393 19.5607C26 19.1213 26 18.4142 26 17Z" fill="#E71D36"/>
<path opacity="0.4" d="M14 29C14 27.5858 14 26.8787 14.4393 26.4393C14.8787 26 15.5858 26 17 26C18.4142 26 19.1213 26 19.5607 26.4393C20 26.8787 20 27.5858 20 29C20 30.4142 20 31.1213 19.5607 31.5607C19.1213 32 18.4142 32 17 32C15.5858 32 14.8787 32 14.4393 31.5607C14 31.1213 14 30.4142 14 29Z" fill="#E71D36"/>
<path d="M14 17C14 15.5858 14 14.8787 14.4393 14.4393C14.8787 14 15.5858 14 17 14C18.4142 14 19.1213 14 19.5607 14.4393C20 14.8787 20 15.5858 20 17C20 18.4142 20 19.1213 19.5607 19.5607C19.1213 20 18.4142 20 17 20C15.5858 20 14.8787 20 14.4393 19.5607C14 19.1213 14 18.4142 14 17Z" stroke="#E71D36" stroke-width="1.5"/>
<path d="M14 29C14 27.5858 14 26.8787 14.4393 26.4393C14.8787 26 15.5858 26 17 26C18.4142 26 19.1213 26 19.5607 26.4393C20 26.8787 20 27.5858 20 29C20 30.4142 20 31.1213 19.5607 31.5607C19.1213 32 18.4142 32 17 32C15.5858 32 14.8787 32 14.4393 31.5607C14 31.1213 14 30.4142 14 29Z" stroke="#E71D36" stroke-width="1.5"/>
<path d="M14 23H20" stroke="#E71D36" stroke-width="1.5" stroke-linecap="round" stroke-linejoin="round"/>
<path d="M23 14V19" stroke="#E71D36" stroke-width="1.5" stroke-linecap="round" stroke-linejoin="round"/>
<path d="M26 17C26 15.5858 26 14.8787 26.4393 14.4393C26.8787 14 27.5858 14 29 14C30.4142 14 31.1213 14 31.5607 14.4393C32 14.8787 32 15.5858 32 17C32 18.4142 32 19.1213 31.5607 19.5607C31.1213 20 30.4142 20 29 20C27.5858 20 26.8787 20 26.4393 19.5607C26 19.1213 26 18.4142 26 17Z" stroke="#E71D36" stroke-width="1.5"/>
<path d="M32 23H26C24.5858 23 23.8787 23 23.4393 23.4393C23 23.8787 23 24.5858 23 26M23 28.7692V31.5385M26 26V27.5C26 28.9464 26.7837 29 28 29C28.5523 29 29 29.4477 29 30M27 32H26M29 26C30.4142 26 31.1213 26 31.5607 26.44C32 26.8799 32 27.5881 32 29.0043C32 30.4206 32 31.1287 31.5607 31.5687C31.24 31.8898 30.7767 31.9766 30 32" stroke="#E71D36" stroke-width="1.5" stroke-linecap="round"/>
</g>
<defs>
<filter id="filter0_dd_149_1785" x="0.5" y="0.5" width="45" height="45" filterUnits="userSpaceOnUse" color-interpolation-filters="sRGB">
<feFlood flood-opacity="0" result="BackgroundImageFix"/>
<feColorMatrix in="SourceAlpha" type="matrix" values="0 0 0 0 0 0 0 0 0 0 0 0 0 0 0 0 0 0 127 0" result="hardAlpha"/>
<feMorphology radius="2.5" operator="dilate" in="SourceAlpha" result="effect1_dropShadow_149_1785"/>
<feOffset/>
<feComposite in2="hardAlpha" operator="out"/>
<feColorMatrix type="matrix" values="0 0 0 0 0.94902 0 0 0 0 0.956863 0 0 0 0 0.968627 0 0 0 1 0"/>
<feBlend mode="normal" in2="BackgroundImageFix" result="effect1_dropShadow_149_1785"/>
<feColorMatrix in="SourceAlpha" type="matrix" values="0 0 0 0 0 0 0 0 0 0 0 0 0 0 0 0 0 0 127 0" result="hardAlpha"/>
<feMorphology radius="1.66667" operator="dilate" in="SourceAlpha" result="effect2_dropShadow_149_1785"/>
<feOffset/>
<feComposite in2="hardAlpha" operator="out"/>
<feColorMatrix type="matrix" values="0 0 0 0 1 0 0 0 0 1 0 0 0 0 1 0 0 0 1 0"/>
<feBlend mode="normal" in2="effect1_dropShadow_149_1785" result="effect2_dropShadow_149_1785"/>
<feBlend mode="normal" in="SourceGraphic" in2="effect2_dropShadow_149_1785" result="shape"/>
</filter>
<linearGradient id="paint0_linear_149_1785" x1="23" y1="3" x2="23" y2="43" gradientUnits="userSpaceOnUse">
<stop stop-color="#E71D36" stop-opacity="0.1"/>
<stop offset="1" stop-color="#E71D36" stop-opacity="0.3"/>
</linearGradient>
</defs>
</svg>
